<svg width="20" height="30" viewBox="0 0 20 30" fill="none" xmlns="http://www.w3.org/2000/svg">
<path d="M10 0C4.476 0 0 4.18199 0 9.3621C0 18.3189 10 30 10 30C10 30 20 18.3171 20 9.3621C20 4.18386 15.524 0 10 0ZM10 14.5422C8.56783 14.5422 7.19432 14.0085 6.18162 13.0585C5.16893 12.1085 4.6 10.82 4.6 9.47655C4.6 8.13305 5.16893 6.84458 6.18162 5.89458C7.19432 4.94458 8.56783 4.41088 10 4.41088C11.4322 4.41088 12.8057 4.94458 13.8184 5.89458C14.8311 6.84458 15.4 8.13305 15.4 9.47655C15.4 10.82 14.8311 12.1085 13.8184 13.0585C12.8057 14.0085 11.4322 14.5422 10 14.5422Z" fill="#8BD25C"/>
</svg>
