<svg width="30" height="30" viewBox="0 0 30 30" fill="none" xmlns="http://www.w3.org/2000/svg">
<path fill-rule="evenodd" clip-rule="evenodd" d="M24.5656 23.3005L20.5621 20.9728C19.7841 20.5204 18.7803 20.7899 18.3314 21.5742L18.1734 21.8502C17.7734 22.5491 17.158 22.9944 16.3735 23.1563C15.5921 23.3175 14.8469 23.1487 14.2089 22.6667C12.8995 21.6773 11.6624 20.5849 10.5051 19.4193C9.34798 18.2539 8.2633 17.0082 7.2812 15.6895C6.80255 15.0468 6.63445 14.2962 6.79452 13.509C6.95519 12.719 7.39839 12.1001 8.09185 11.697L8.36566 11.5379C8.7454 11.3172 9.01124 10.9641 9.1248 10.538C9.23783 10.1137 9.18169 9.67189 8.96355 9.29138L6.65202 5.25921C6.24158 4.54321 5.3946 4.25907 4.63259 4.5536L4.58284 4.57284C3.79745 4.87628 1.63282 5.6726 1.05111 6.25848C-0.669149 7.99109 0.0669055 11.1255 0.834367 13.1201C2.17845 16.6133 4.72804 19.9755 7.34085 22.6066C9.95331 25.2374 13.2915 27.806 16.7595 29.1597C17.9628 29.6293 19.3168 30 20.6158 30C21.7029 30 22.7851 29.7349 23.573 28.9414C24.1275 28.3829 24.95 26.1345 25.2514 25.371L25.2708 25.3218C25.5716 24.5596 25.2687 23.7093 24.5656 23.3005ZM23.3324 7.48311C23.711 7.61972 23.9634 7.98141 23.9634 8.38618V12.9774H24.1409C24.6665 12.9774 25.0934 13.4073 25.0934 13.9367C25.0934 14.4667 24.6671 14.896 24.1409 14.896H23.9634V15.958C23.9634 16.488 23.5366 16.9171 23.0109 16.9171C22.4849 16.9171 22.0587 16.488 22.0587 15.958V14.896H18.4753C18.1068 14.896 17.7712 14.682 17.614 14.3468C17.4567 14.0111 17.5056 13.6143 17.7395 13.3278L22.2752 7.77634C22.5304 7.46393 22.9539 7.34655 23.3324 7.48311ZM22.0587 12.9775H20.4929L22.0587 11.0614V12.9775ZM15.6031 11.0834C15.7781 10.4378 15.6753 9.95692 15.2959 9.6546C14.8547 9.30336 14.1202 9.2411 13.6231 9.51373C13.2653 9.71001 13.114 10.0409 13.1597 10.5259C13.2105 11.0534 12.827 11.5223 12.3033 11.5726C11.7793 11.6238 11.3146 11.2369 11.264 10.71C11.1435 9.44953 11.6712 8.3991 12.7116 7.82839C13.8845 7.18586 15.4335 7.31764 16.4781 8.15054C17.4682 8.93931 17.8192 10.193 17.4407 11.5887C17.183 12.5398 16.2911 13.2402 15.3478 13.9822C14.9452 14.2984 14.5172 14.6347 14.1291 14.9987H16.8968C17.4228 14.9987 17.8491 15.4286 17.8491 15.958C17.8491 16.488 17.4228 16.9171 16.8968 16.9171H12.1901C11.8621 16.9171 11.5569 16.7473 11.3828 16.4674C11.2085 16.1877 11.1902 15.8367 11.3331 15.5395C11.9812 14.1947 13.198 13.2381 14.1755 12.4697C14.7708 12.0015 15.5118 11.4191 15.6031 11.0834ZM30 12.4938C30 15.8308 28.7094 18.9678 26.3666 21.3277C26.1804 21.5146 25.9369 21.6088 25.6929 21.6088C25.4495 21.6088 25.2052 21.5146 25.0196 21.3277C24.6475 20.9529 24.6475 20.3454 25.0196 19.9707C27.0024 17.9737 28.095 15.318 28.095 12.4938C28.095 6.66236 23.3849 1.91862 17.5949 1.91862C14.7904 1.91862 12.1539 3.0188 10.1708 5.01579C9.79874 5.39052 9.19581 5.39052 8.82374 5.01579C8.45167 4.64105 8.45167 4.03381 8.82374 3.65908C11.1669 1.29981 14.2816 0 17.5949 0C24.4349 5.90127e-05 30 5.60467 30 12.4938Z" fill="#8BD25C"/>
</svg>
