<svg width="29" height="23" viewBox="0 0 29 23" fill="none" xmlns="http://www.w3.org/2000/svg">
<path d="M24.4922 0.733286C24.9933 0.257752 25.6602 -0.00514188 26.3521 7.62187e-05C27.044 0.00529432 27.7068 0.278217 28.2006 0.761255C28.6945 1.24429 28.9808 1.89966 28.9991 2.58908C29.0174 3.27849 28.7662 3.94803 28.2987 4.4564L14.1043 22.15C13.8603 22.4121 13.5657 22.6224 13.2382 22.7683C12.9107 22.9143 12.5571 22.9929 12.1984 22.9995C11.8398 23.0062 11.4834 22.9406 11.1508 22.8069C10.8181 22.6731 10.5159 22.4738 10.2623 22.221L0.849199 12.8387C0.58706 12.5953 0.376806 12.3017 0.230978 11.9754C0.0851499 11.6492 0.00673609 11.2971 0.000415228 10.94C-0.00590564 10.5829 0.0599961 10.2283 0.194188 9.89712C0.328379 9.56598 0.528112 9.26517 0.781471 9.01264C1.03483 8.76011 1.33662 8.56104 1.66885 8.42728C2.00108 8.29353 2.35693 8.22785 2.71517 8.23415C3.07342 8.24045 3.42673 8.3186 3.75401 8.46395C4.0813 8.6093 4.37586 8.81887 4.62012 9.08015L12.0695 16.5016L24.4246 0.811295C24.4468 0.783996 24.467 0.757951 24.4922 0.733286Z" fill="#E91E1D"/>
</svg>
